<svg fill="#1C2033" width="52" height="52" viewBox="0 0 64 64" xmlns="http://www.w3.org/2000/svg"><path d="M56.8 43.7002C57.1 39.5002 55.7 35.4002 52.8 32.3002C55.6 29.1002 57 24.8002 56.5 20.7002C60.2 19.3002 62.7 15.6002 62.7 11.4002C62.7 5.90023 58.2 1.40023 52.7 1.40023C48.6 1.40023 44.9 3.90023 43.4 7.50023C39.2 7.10023 34.8 8.30023 31.5 11.2002C28.4 8.40023 24.3 7.00023 20.2 7.40023C18.6 3.90023 15.1 1.30023 10.9 1.30023C5.5 1.10023 1 5.70023 1 11.2002C1 15.2002 3.3 18.5002 6.6 20.2002C6 24.7002 7.3 29.0002 10.4 32.3002C7.4 35.5002 6.2 39.6002 6.6 43.9002C3.3 45.5002 1 49.0002 1 52.8002C1 58.3002 5.5 62.8002 11 62.8002C15 62.8002 18.5 60.5002 20.2 57.2002C24.4 57.6002 28.4 56.2002 31.6 53.4002C34.8 56.4002 39.4 57.8002 43.7 57.1002C45.4 60.5002 48.9 62.7002 52.9 62.7002C58.4 62.7002 62.9 58.2002 62.9 52.7002C63.1 48.9002 60.6 45.2002 56.8 43.7002ZM44.1 42.4002C44.1 43.0002 44 43.5002 43.4 44.0002C42.7 44.7002 41.7 44.8002 40.9 44.4002L43.9 41.4002C43.9 41.7002 44.1 42.1002 44.1 42.4002ZM19.5 41.5002L22.5 44.5002C21.8 44.8002 20.8 44.6002 20.1 44.1002C19.7 43.7002 19.4 43.1002 19.4 42.5002C19.4 42.1002 19.4 41.7002 19.5 41.5002ZM31.6 35.6002L28.4 32.4002L31.6 29.2002L34.8 32.4002L31.6 35.6002ZM19.4 22.3002C19.4 21.7002 19.5 21.2002 20.1 20.7002C20.8 20.0002 21.8 19.9002 22.6 20.3002L19.6 23.3002C19.4 22.9002 19.4 22.6002 19.4 22.3002ZM43.8 23.2002L40.8 20.2002C41.5 19.9002 42.6 20.1002 43.3 20.6002C43.7 21.0002 44 21.6002 44 22.2002C44.1 22.6002 43.9 22.9002 43.8 23.2002ZM44.5 12.6002L47.2 13.3002L47.6 10.5002C48 8.00023 50.3 6.00023 52.7 6.00023C55.7 6.00023 57.9 8.30023 57.9 11.1002C57.9 13.8002 55.9 15.9002 53.4 16.2002L50.6 16.6002L51.3 19.3002C52.1 22.3002 51.6 25.4002 49.9 27.9002L47.8 25.6002C48.5 24.5002 48.8 23.3002 48.8 22.1002C48.8 20.1002 48.1 18.4002 46.7 17.0002C43.9 14.2002 39.5 14.2002 36.7 17.0002L25.7 28.0002L23.4 25.9002L34.4 15.0002C37 12.4002 41 11.5002 44.5 12.6002ZM5.9 11.2002C5.9 8.40023 8.2 6.10023 11.1 6.10023C13.6 6.10023 15.9 7.90023 16.2 10.5002L16.6 13.0002L19.1 12.4002C22.1 11.7002 24.9 12.3002 27.3 14.0002L25 16.3002C22.3 14.6002 18.6 15.0002 16.4 17.4002C15 18.8002 14.3 20.5002 14.3 22.5002C14.3 24.5002 15 26.2002 16.4 27.6002L27.4 38.6002L25 40.6002L15.3 30.6002L14.2 29.5002C11.5 26.8002 10.7 23.1002 11.5 19.3002L12.2 16.9002L9.7 16.3002C7.5 15.8002 5.9 13.6002 5.9 11.2002ZM19.2 52.3002L16.8 51.7002L16.2 54.1002C15.8 56.5002 13.5 58.2002 11.1 58.2002C8.1 58.2002 5.9 55.9002 5.9 53.1002C5.9 50.7002 7.6 48.6002 9.9 48.0002L12.3 47.4002L11.7 44.7002C11 41.7002 11.6 38.6002 13.1 36.2002L15.4 38.5002C14.7 39.6002 14.4 40.8002 14.4 42.0002C14.4 44.0002 15.1 45.7002 16.5 47.1002C19.3 49.9002 23.7 49.9002 26.5 47.1002L37.5 36.1002L39.8 38.2002L28.8 49.2002C26.3 52.0002 22.7 53.0002 19.2 52.3002ZM53.1 58.1002C50.4 58.0002 48.3 56.3002 47.7 53.9002L47.3 51.2002L44.8 52.2002C41.7 53.0002 38.4 52.6002 35.9 50.8002L38.2 48.5002C40.9 50.2002 44.6 49.8002 46.8 47.4002C48.2 46.0002 48.9 44.3002 48.9 42.3002C48.9 40.3002 48.2 38.6002 46.8 37.2002L35.9 26.4002L38.2 24.1002L49.2 35.1002C51.7 37.6002 52.7 41.3002 51.9 44.8002L51.3 47.5002L54 48.0002C56.5 48.4002 58.5 50.7002 58.5 53.1002C58.2 55.8002 55.9 58.1002 53.1 58.1002Z"/></svg>