<?xml version="1.0" standalone="no"?>
<!DOCTYPE svg PUBLIC "-//W3C//DTD SVG 20010904//EN" "http://www.w3.org/TR/2001/REC-SVG-20010904/DTD/svg10.dtd">
<svg version="1.0" xmlns="http://www.w3.org/2000/svg" width="151.000000pt" height="70.000000pt" viewBox="0 0 254.000000 117.000000" preserveAspectRatio="xMidYMid meet">
	<g transform="translate(0.000000,117.000000) scale(0.100000,-0.100000)" fill="#000000" stroke="none">
		<path d="M345 1002 c-196 -82 -305 -251 -292 -452 2 -41 12 -97 22 -125 69
-196 285 -329 487 -299 l53 8 -75 8 c-276 29 -464 298 -395 563 32 120 105
218 209 280 63 37 58 45 -9 17z" />
		<path d="M475 976 c-53 -13 -100 -35 -76 -36 7 0 -4 -17 -26 -37 -21 -21 -28
-29 -14 -17 49 39 86 61 141 82 61 23 51 27 -25 8z m-40 -26 c-3 -5 -12 -10
-18 -10 -7 0 -6 4 3 10 19 12 23 12 15 0z" />
		<path d="M500 918 c-78 -30 -169 -123 -199 -203 -32 -83 -27 -198 12 -278 36
-71 66 -99 35 -31 -34 74 -32 199 4 276 37 80 105 149 181 184 52 24 75 28
147 29 76 0 92 -4 150 -32 l65 -33 -34 30 c-63 54 -117 73 -216 77 -74 3 -100
-1 -145 -19z" />
		<path d="M314 842 c-6 -4 -19 -23 -29 -42 -10 -19 -15 -33 -12 -30 8 7 57 80
54 80 -1 0 -7 -4 -13 -8z" />
		<path d="M245 829 c-11 -16 -1 -19 13 -3 7 8 8 14 3 14 -5 0 -13 -5 -16 -11z" />
		<path d="M580 725 c0 -14 -16 -97 -36 -185 -19 -88 -32 -164 -29 -170 3 -5 24
-10 46 -10 37 0 39 2 40 33 3 71 19 130 38 142 9 5 34 11 55 12 45 3 61 15 53
36 -4 11 -18 13 -56 9 -66 -6 -65 4 2 18 46 10 97 38 97 54 0 11 -96 -7 -113
-22 -26 -23 -30 -9 -13 43 9 25 14 51 11 56 -4 5 -26 9 -51 9 -40 0 -44 -2
-44 -25z" />
		<path d="M760 738 c0 -6 -10 -22 -22 -35 -24 -26 -17 -28 50 -12 53 13 72 25
72 45 0 10 -14 14 -50 14 -32 0 -50 -4 -50 -12z" />
		<path d="M913 736 c3 -8 -12 -92 -33 -186 -22 -95 -37 -177 -34 -181 9 -15
212 -11 243 5 23 12 51 52 51 72 0 3 -24 3 -52 0 -149 -18 -163 -18 -150 -5 6
7 12 23 12 35 0 12 -6 25 -12 27 -8 4 -7 6 3 6 9 1 19 11 22 22 5 20 10 21 74
16 79 -7 114 1 90 22 -12 9 -32 10 -92 2 -150 -21 -155 -12 -10 19 131 28 135
29 135 45 0 17 -67 9 -91 -11 -17 -16 -89 -19 -89 -5 0 5 -10 12 -22 14 l-23
4 23 2 c13 0 27 11 34 26 9 20 18 25 48 25 20 0 41 -5 47 -11 13 -13 75 1 81
19 4 14 -37 15 -140 4 -85 -10 -79 2 9 18 111 21 107 29 -16 30 -93 0 -112 -2
-108 -14z" />
		<path d="M246 725 c-3 -9 -6 -22 -5 -28 0 -7 5 -1 10 12 5 13 8 26 5 28 -2 2
-6 -3 -10 -12z" />
		<path d="M184 705 c-4 -14 -4 -29 0 -32 3 -4 6 3 6 13 0 11 5 25 12 32 9 9 9
12 0 12 -6 0 -14 -11 -18 -25z" />
		<path d="M173 595 c0 -38 2 -53 4 -32 2 20 2 52 0 70 -2 17 -4 1 -4 -38z" />
		<path d="M230 521 c0 -17 4 -32 8 -35 4 -2 6 11 4 30 -5 42 -12 45 -12 5z" />
		<path d="M686 521 c-14 -22 6 -40 37 -34 38 7 52 17 43 32 -9 13 -73 15 -80 2z" />
		<path d="M181 504 c0 -11 3 -14 6 -6 3 7 2 16 -1 19 -3 4 -6 -2 -5 -13z" />
		<path d="M1093 513 c-25 -3 -33 -9 -33 -24 0 -18 5 -19 38 -13 20 4 40 9 45
11 12 7 8 33 -5 31 -7 0 -28 -3 -45 -5z" />
		<path d="M707 463 c-4 -3 -7 -15 -7 -26 0 -17 5 -18 37 -12 48 9 53 12 46 30
-5 15 -63 21 -76 8z" />
		<path d="M219 403 c5 -10 17 -27 25 -38 13 -16 13 -13 -1 17 -10 21 -22 38
-26 38 -4 0 -3 -8 2 -17z" />
		<path d="M738 403 c-24 -4 -27 -7 -18 -24 8 -14 21 -19 50 -19 22 0 40 4 40 9
0 5 3 16 6 25 6 17 -13 19 -78 9z" />
		<path d="M280 381 c0 -4 14 -24 31 -42 l31 -34 -28 43 c-27 42 -34 49 -34 33z" />
		<path d="M302 305 c21 -22 39 -37 41 -34 2 2 -15 19 -37 38 l-41 35 37 -39z" />
		<path d="M2213 318 c-6 -7 -14 -28 -18 -45 l-7 -33 -189 0 c-119 0 -189 -4
-189 -10 0 -5 25 -10 55 -10 30 0 55 -4 55 -10 0 -5 -13 -8 -30 -6 -39 4 -56
-11 -63 -56 -7 -48 14 -72 54 -64 17 3 29 1 32 -7 9 -25 21 6 26 71 l6 67 63
3 c51 2 62 0 62 -13 0 -11 -10 -15 -35 -15 -41 0 -58 -24 -53 -78 3 -36 4 -37
46 -40 41 -3 72 10 72 29 0 5 -7 9 -15 9 -8 0 -15 -4 -15 -10 0 -12 -57 -14
-63 -2 -3 4 -2 22 0 40 5 32 7 33 47 30 38 -3 41 -1 44 25 3 26 6 28 45 25 39
-3 42 -5 42 -33 0 -30 -5 -32 -36 -20 -14 5 -18 -1 -21 -34 -2 -22 -2 -45 0
-50 6 -17 72 -13 79 4 7 21 -4 32 -19 17 -18 -18 -38 -14 -38 8 0 15 7 20 25
20 27 0 45 25 45 64 0 20 5 26 21 26 21 0 22 -3 16 -75 -4 -58 -2 -75 8 -75 9
0 15 24 20 75 l7 75 69 0 c55 0 69 -3 69 -15 0 -10 -11 -15 -35 -15 -36 0 -43
-8 -24 -27 14 -14 2 -53 -17 -53 -8 0 -14 9 -14 20 0 11 -4 20 -10 20 -5 0
-10 -13 -10 -29 0 -59 76 -48 82 12 5 48 23 33 22 -18 0 -31 4 -45 13 -45 8 0
13 12 13 29 0 62 13 121 26 121 8 0 14 5 14 10 0 6 -40 10 -99 10 l-100 0 -3
43 c-3 39 -5 42 -34 45 -17 2 -35 -3 -41 -10z m52 -43 c0 -23 -5 -31 -22 -33
-19 -3 -23 1 -23 26 0 33 8 44 30 40 9 -2 15 -14 15 -33z m-352 -102 c3 -5 1
-16 -2 -27 -7 -17 -9 -16 -24 8 -17 25 -17 26 2 26 11 0 22 -3 24 -7z m-33
-38 l23 -25 -26 0 c-22 0 -27 5 -27 25 0 14 1 25 3 25 2 0 14 -11 27 -25z" />
		<path d="M1890 290 c0 -35 73 -41 94 -8 13 21 0 36 -16 20 -15 -15 -58 -16
-58 -2 0 6 -4 10 -10 10 -5 0 -10 -9 -10 -20z" />
		<path d="M389 267 c6 -8 7 -18 3 -22 -4 -5 -1 -5 6 -1 10 6 10 11 1 22 -6 8
-14 14 -16 14 -3 0 0 -6 6 -13z" />
		<path d="M680 231 c0 -6 19 -11 43 -13 49 -4 53 -21 5 -28 -27 -4 -33 -10 -39
-39 -4 -19 -5 -40 -2 -47 6 -16 39 -28 52 -19 5 3 12 1 16 -5 13 -21 25 -9 25
24 0 47 9 66 31 66 29 0 26 -56 -3 -64 -22 -6 -22 -7 -5 -17 29 -17 59 16 55
60 -3 33 -6 36 -35 39 -21 2 -33 9 -33 18 0 12 20 14 117 12 106 -3 118 -5
121 -22 5 -23 -15 -46 -26 -30 -9 15 -82 16 -99 3 -7 -7 -13 -31 -13 -55 0
-37 3 -44 20 -44 22 0 26 10 9 27 -15 15 -3 63 15 63 8 0 16 -6 19 -12 3 -10
7 -10 20 1 15 12 17 11 17 -12 0 -31 31 -51 66 -44 16 3 24 0 24 -10 0 -8 6
-13 13 -11 7 3 14 31 17 74 5 65 6 69 29 69 24 0 25 -2 22 -65 -1 -35 -5 -68
-7 -72 -3 -5 2 -8 10 -8 11 0 16 9 16 29 0 15 3 49 6 75 5 35 11 46 25 46 15
0 19 -10 21 -52 3 -49 5 -53 29 -56 33 -4 47 13 51 62 2 22 9 41 17 44 11 4
13 -11 9 -72 -2 -57 0 -76 9 -76 8 0 13 12 13 29 0 15 3 49 6 75 l7 46 53 0
c41 0 54 -4 54 -15 0 -10 -10 -15 -30 -15 -32 0 -50 -22 -50 -64 0 -28 29 -50
54 -40 9 4 16 1 16 -6 0 -6 6 -10 13 -8 6 3 14 24 17 49 4 36 9 45 28 47 19 3
22 -1 22 -27 0 -24 -4 -31 -20 -31 -21 0 -27 -15 -10 -25 18 -11 47 14 53 45
9 43 -1 60 -34 60 -19 0 -29 5 -29 15 0 13 13 15 78 13 73 -3 77 -4 80 -27 4
-28 -17 -45 -35 -29 -8 6 -16 9 -19 6 -9 -10 -15 -60 -9 -79 8 -23 57 -26 75
-4 16 19 5 34 -12 17 -18 -18 -38 -14 -38 8 0 13 7 20 19 20 26 0 44 25 44 61
0 17 6 29 14 29 7 0 13 5 13 10 0 7 -180 10 -520 10 -319 0 -520 -4 -520 -9z
m410 -45 c0 -52 -9 -66 -41 -66 -31 0 -39 14 -14 24 9 3 15 19 15 41 0 28 4
35 20 35 16 0 20 -7 20 -34z m198 -3 c-2 -27 -8 -39 -20 -41 -14 -3 -18 4 -18
31 0 37 6 47 27 47 10 0 13 -11 11 -37z m-533 -43 c0 -18 -6 -26 -22 -28 -20
-3 -23 1 -23 28 0 27 3 31 23 28 16 -2 22 -10 22 -28z m720 0 c0 -18 -6 -26
-22 -28 -20 -3 -23 1 -23 28 0 27 3 31 23 28 16 -2 22 -10 22 -28z" />
		<path d="M457 219 c7 -7 15 -10 18 -7 3 3 -2 9 -12 12 -14 6 -15 5 -6 -5z" />
		<path d="M2420 43 c1 -12 49 -45 60 -41 17 5 -20 48 -41 48 -10 0 -19 -3 -19
-7z" />
	</g>
</svg>
