<svg fill="#660066" width="52" height="52" viewBox="0 0 64 64" xmlns="http://www.w3.org/2000/svg">
	<path d="M61.801 30.1996C61.401 29.8996 60.801 29.8996 60.401 30.0996C60.001 30.1996 59.701 30.4996 59.101 30.7996C59.101 30.4996 59.101 30.3996 59.101 30.0996C59.101 22.4996 59.101 14.9996 59.101 7.39961C59.101 5.89961 58.801 4.49961 57.701 3.19961C57.001 2.09961 55.701 1.49961 54.501 1.19961C54.401 1.19961 54.401 1.09961 54.201 1.09961C39.201 1.09961 24.501 1.09961 9.50096 1.09961C8.80096 1.29961 8.10096 1.59961 7.40096 1.99961C5.80096 2.99961 5.00096 4.39961 4.70096 6.19961C4.70096 6.79961 4.70096 7.29961 4.70096 7.89961C4.70096 15.2996 4.70096 22.7996 4.70096 30.1996C4.70096 30.2996 4.70096 30.4996 4.70096 30.8996C4.60096 30.7996 4.40096 30.7996 4.10096 30.5996C3.80096 30.3996 3.40096 30.1996 3.10096 30.1996C2.30096 29.8996 1.60096 30.4996 1.70096 31.4996C1.80096 32.0996 2.00096 32.5996 2.30096 32.8996C3.70096 34.5996 5.50096 36.0996 7.50096 37.3996C9.70096 38.7996 12.001 40.0996 14.401 41.1996C14.501 41.2996 14.501 41.2996 14.701 41.2996C14.601 42.0996 14.301 42.9996 14.101 43.7996C13.701 45.9996 13.301 48.2996 13.501 50.4996C13.601 53.2996 14.501 55.9996 16.201 58.3996C17.901 60.7996 20.301 62.2996 23.201 62.6996C23.301 62.6996 23.501 62.7996 23.601 62.7996C24.201 62.7996 24.901 62.7996 25.401 62.7996C26.001 62.6996 26.501 62.4996 27.101 62.3996C29.301 61.6996 31.001 59.4996 31.001 57.0996C31.101 53.1996 31.101 49.1996 31.101 45.4996C31.101 45.3996 31.101 45.0996 31.101 44.7996C31.701 44.8996 32.101 45.0996 32.501 45.1996C32.601 45.2996 32.601 45.4996 32.601 45.5996C32.601 48.7996 32.601 52.1996 32.701 55.5996C32.701 56.6996 32.701 57.6996 33.001 58.7996C33.701 61.1996 35.501 62.3996 37.801 62.8996C37.901 62.8996 38.101 62.9996 38.201 62.9996C38.801 62.9996 39.501 62.9996 40.001 62.9996C41.101 62.6996 42.201 62.3996 43.201 61.8996C45.701 60.7996 47.401 58.6996 48.501 56.2996C49.901 53.1996 50.201 49.9996 49.801 46.5996C49.701 45.0996 49.201 43.4996 49.001 41.9996C49.001 41.8996 48.901 41.6996 48.901 41.5996C49.701 41.1996 50.601 40.8996 51.401 40.4996C54.301 39.0996 57.301 37.2996 59.701 35.1996C60.401 34.4996 61.101 33.4996 61.801 32.7996C61.901 32.6996 61.901 32.3996 61.901 32.1996C62.401 30.9996 62.201 30.4996 61.801 30.1996ZM55.801 32.9996C53.401 34.0996 51.201 35.0996 48.801 35.6996C45.301 36.3996 41.801 36.6996 38.301 36.3996C37.501 36.2996 36.501 36.2996 35.601 36.4996C34.201 36.5996 33.201 37.4996 33.101 38.9996C33.101 39.0996 33.001 39.0996 33.001 39.2996C32.201 38.5996 31.301 37.8996 30.501 37.1996C29.801 36.5996 29.101 36.4996 28.301 36.4996C26.301 36.4996 24.201 36.5996 22.301 36.5996C17.501 36.4996 13.201 35.4996 8.80096 33.3996C8.70096 33.2996 8.50096 33.0996 8.50096 32.7996C8.50096 24.8996 8.50096 16.8996 8.60096 9.09961C8.60096 8.29961 8.70096 7.59961 9.00096 6.69961C9.30096 5.39961 10.301 4.89961 11.401 4.59961C12.101 4.49961 12.901 4.49961 13.601 4.49961C26.101 4.49961 38.701 4.49961 51.201 4.49961C52.201 4.49961 53.201 4.49961 54.101 4.89961C55.401 5.49961 55.901 6.39961 56.201 7.69961C56.301 8.39961 56.301 9.39961 56.301 10.0996C56.301 17.4996 56.301 24.9996 56.301 32.3996C56.301 32.5996 56.201 32.6996 55.801 32.9996Z" />
	<path d="M17.8023 22.5995C16.3023 24.5995 16.0023 26.8995 17.1023 29.1995C18.5023 31.9995 20.9023 33.2995 23.7023 33.3995C25.5023 33.2995 27.1023 32.7995 28.5023 31.9995C32.0023 29.5995 32.3023 24.5995 29.2023 21.5995C25.8023 18.3995 20.4023 18.7995 17.8023 22.5995Z" />
	<path d="M45.7992 21.0993C42.2992 18.5993 37.4992 19.2993 35.0992 22.4993C33.5992 24.5993 33.2992 26.9993 34.3992 29.3993C35.7992 32.1993 38.1992 33.2993 40.9992 33.4993C43.0992 33.3993 44.8992 32.7993 46.2992 31.4993C49.4992 28.5993 49.1992 23.3993 45.7992 21.0993Z" />
</svg>
